<?xml version="1.0" standalone="no"?>
<!DOCTYPE svg PUBLIC "-//W3C//DTD SVG 20010904//EN"
 "http://www.w3.org/TR/2001/REC-SVG-20010904/DTD/svg10.dtd">
<svg version="1.0" xmlns="http://www.w3.org/2000/svg"
 width="3000.000000pt" height="3000.000000pt" viewBox="0 0 3000.000000 3000.000000"
 preserveAspectRatio="xMidYMid meet">
<metadata>
Created by potrace 1.14, written by Peter Selinger 2001-2017
</metadata>
<g transform="translate(0.000000,3000.000000) scale(0.100000,-0.100000)"
fill="#000000" stroke="none">
<path d="M2325 19155 l0 -405 1122 0 1123 0 0 -1163 0 -1163 -72 -37 c-86 -43
-96 -49 -168 -101 -121 -87 -267 -249 -329 -366 -24 -45 -58 -73 -474 -393
-56 -43 -109 -84 -117 -90 -17 -14 -805 -622 -960 -741 -58 -44 -157 -121
-221 -171 -64 -49 -169 -130 -234 -180 -64 -49 -159 -123 -211 -163 -106 -82
-101 -68 -71 -192 13 -52 144 -645 161 -725 19 -90 58 -268 66 -302 5 -24 14
-62 20 -85 16 -68 108 -490 113 -518 3 -14 16 -74 30 -135 27 -113 195 -872
200 -903 18 -97 42 -182 54 -186 8 -3 38 -21 66 -39 124 -80 300 -187 308
-187 5 0 9 -4 9 -10 0 -5 4 -10 9 -10 5 0 147 -86 316 -190 169 -105 311 -190
316 -190 5 0 9 -4 9 -9 0 -5 8 -11 18 -14 9 -3 31 -15 48 -27 l32 -21 131 158
c72 87 132 161 134 164 2 6 -97 115 -248 274 -22 23 -103 109 -180 190 -77 82
-172 183 -212 224 -157 167 -173 186 -174 211 -1 14 -3 34 -4 45 -1 11 -5 47
-9 80 -4 33 -8 71 -11 85 -2 14 -7 52 -10 85 -3 33 -8 74 -10 90 -2 17 -7 55
-10 86 -3 31 -7 65 -9 76 -2 10 -7 50 -10 88 -4 39 -8 81 -11 95 -2 14 -7 52
-10 85 -3 33 -8 74 -10 90 -8 63 -15 122 -20 165 -2 25 -13 119 -24 210 -11
91 -22 190 -26 220 -3 30 -7 66 -9 80 -3 14 -7 52 -10 85 -9 85 -15 139 -26
223 -17 126 -17 125 43 152 28 13 81 37 117 53 36 16 83 38 105 48 22 9 67 29
100 44 33 15 121 54 195 87 74 33 173 78 218 99 46 21 86 39 88 39 2 0 27 11
56 24 29 13 121 54 203 91 83 37 177 80 210 95 33 15 85 38 115 50 30 13 60
26 65 30 29 20 46 17 87 -14 138 -104 352 -195 526 -223 56 -9 332 -10 382 -1
186 34 367 108 516 212 l64 45 77 -36 c43 -19 137 -61 208 -93 72 -32 155 -69
185 -83 30 -14 208 -93 395 -177 187 -84 368 -165 402 -181 34 -16 64 -29 67
-29 5 0 196 -87 216 -99 8 -5 14 -17 13 -26 -3 -39 -14 -142 -17 -170 -2 -16
-7 -57 -11 -90 -3 -33 -8 -73 -10 -90 -2 -16 -7 -52 -10 -80 -3 -27 -7 -66
-10 -85 -2 -19 -7 -55 -9 -80 -3 -25 -10 -83 -15 -130 -6 -47 -13 -107 -16
-135 -6 -61 -10 -95 -30 -255 -8 -69 -17 -150 -21 -180 -3 -30 -7 -66 -9 -80
-1 -14 -6 -54 -9 -90 -4 -36 -9 -76 -11 -90 -3 -14 -7 -50 -10 -80 -3 -30 -7
-72 -10 -92 -13 -97 -21 -162 -30 -248 -6 -52 -11 -60 -78 -129 -40 -41 -79
-81 -87 -90 -8 -9 -79 -84 -157 -166 -78 -83 -158 -168 -178 -190 -21 -22 -99
-104 -174 -183 -75 -79 -138 -148 -139 -153 -2 -5 51 -76 119 -157 160 -193
145 -178 164 -162 9 7 54 36 101 64 79 48 763 469 941 579 58 36 84 59 88 77
9 35 10 38 45 200 17 80 35 161 40 180 5 19 11 46 14 60 6 36 94 434 111 505
15 62 84 375 91 410 2 11 15 72 29 135 15 63 29 126 31 140 3 14 10 45 15 70
6 25 12 52 14 60 2 8 15 68 29 133 14 64 38 170 52 235 14 64 27 124 29 132 2
8 13 58 25 110 11 52 44 201 73 331 l53 235 -131 101 c-183 142 -418 323 -499
385 -37 29 -94 73 -125 98 -32 25 -71 55 -87 67 -71 53 -151 116 -285 219 -79
62 -184 143 -234 181 -49 38 -200 154 -335 259 -324 250 -337 260 -468 360
-89 68 -121 99 -150 146 -85 139 -196 264 -312 352 -56 43 -203 129 -240 141
-20 6 -20 11 -20 1171 l0 1164 1124 0 1125 0 0 405 0 405 -2717 0 -2717 0 0
-405z"/>
<path d="M10270 15114 l0 -1734 448 2 447 3 0 1042 c0 572 3 1039 6 1038 3 -2
24 -30 45 -62 22 -32 61 -87 86 -123 93 -132 419 -598 483 -690 37 -52 136
-194 222 -315 85 -121 174 -249 199 -285 24 -36 75 -108 112 -161 37 -53 123
-175 191 -273 l123 -176 432 0 431 0 0 1734 1 1733 -448 1 c-323 0 -448 -4
-450 -12 -2 -6 -3 -453 -3 -993 1 -541 0 -983 -1 -983 -3 0 -59 79 -204 285
-127 180 -353 502 -577 820 -178 252 -191 272 -259 370 -35 50 -66 95 -71 100
-5 6 -56 77 -113 159 -58 82 -121 172 -141 200 l-35 51 -462 1 -462 2 0 -1734z"/>
<path d="M21420 15114 l0 -1734 400 0 400 0 0 325 c0 179 0 543 0 810 0 267 0
901 0 1409 l0 924 -400 -1 -400 0 0 -1733z"/>
<path d="M17119 16569 c-1 -5 -2 -159 -3 -341 l-1 -333 -208 0 -207 0 0 -350
0 -350 201 0 c110 0 204 -2 208 -5 3 -3 7 -282 7 -620 0 -338 4 -635 8 -660
26 -167 79 -281 178 -386 39 -41 76 -74 83 -74 8 0 15 -4 17 -9 6 -15 138 -72
212 -90 114 -30 311 -41 426 -26 19 2 57 7 84 11 127 15 306 84 351 134 18 20
16 27 -75 375 -24 88 -47 180 -52 204 -6 24 -13 39 -17 34 -23 -33 -160 -64
-239 -53 -58 9 -119 55 -151 115 l-26 50 0 500 0 500 253 0 252 0 0 347 0 348
-27 1 c-16 0 -130 1 -255 1 l-228 1 0 342 0 343 -395 0 c-217 -1 -396 -4 -396
-9z"/>
<path d="M15218 15955 c-2 -1 -39 -5 -83 -8 -356 -25 -703 -205 -915 -475 -33
-42 -65 -83 -70 -89 -6 -7 -35 -59 -64 -115 -65 -123 -120 -287 -140 -418 -18
-116 -14 -355 8 -473 78 -416 310 -731 671 -909 158 -78 316 -122 510 -143
114 -12 350 -6 450 11 17 3 39 7 50 9 117 16 248 52 375 102 63 25 120 49 125
53 6 4 33 20 60 35 28 16 62 37 76 49 15 12 38 30 53 40 14 10 26 23 26 27 0
5 -37 63 -82 130 -46 66 -104 153 -130 192 -25 40 -51 77 -56 83 -5 5 -22 29
-37 52 l-28 42 -31 -25 c-88 -70 -258 -143 -401 -171 -87 -17 -230 -21 -305
-9 -147 23 -273 81 -360 165 -67 65 -103 119 -136 206 l-24 64 48 1 c26 0 428
1 894 1 772 1 847 2 850 17 8 34 -4 330 -17 406 -7 40 -16 94 -22 125 -58 327
-277 660 -543 827 -123 78 -315 153 -455 177 -53 10 -291 26 -297 21z m156
-629 c164 -23 298 -119 365 -261 26 -55 33 -78 45 -141 l4 -21 -518 0 -517 0
13 51 c72 273 303 415 608 372z"/>
<path d="M19977 15955 c-1 -1 -40 -5 -87 -8 -497 -35 -926 -316 -1114 -729
-116 -257 -147 -509 -100 -833 21 -151 88 -326 178 -470 59 -94 76 -114 181
-221 443 -446 1299 -507 1810 -127 80 59 205 187 205 209 0 6 -31 40 -68 75
-37 35 -131 123 -208 195 -241 227 -238 224 -249 210 -116 -148 -270 -226
-452 -228 -173 -2 -310 49 -419 156 -118 115 -174 258 -175 450 -2 163 33 281
117 392 137 182 395 264 629 200 6 -2 24 -7 40 -11 81 -22 202 -111 258 -189
13 -18 18 -16 88 49 41 38 76 72 79 75 3 3 61 57 130 120 209 193 230 213 230
224 0 13 -31 50 -108 129 -160 166 -449 294 -727 322 -60 6 -233 13 -238 10z"/>
<path d="M23898 15955 c-2 -1 -52 -5 -113 -8 -109 -6 -132 -9 -230 -27 -106
-19 -216 -50 -313 -87 -144 -54 -332 -160 -436 -245 l-29 -24 45 -80 c25 -43
56 -97 68 -119 13 -22 52 -92 88 -155 93 -166 79 -155 137 -111 392 298 988
300 1138 5 9 -18 19 -47 23 -65 7 -34 13 -368 7 -381 -2 -3 -20 11 -41 31 -92
93 -288 191 -432 215 -19 3 -48 8 -65 11 -114 19 -264 24 -375 11 -351 -39
-608 -229 -690 -511 -38 -134 -46 -354 -16 -462 8 -29 12 -53 10 -53 -12 0 71
-170 109 -222 99 -137 220 -230 392 -298 230 -91 535 -80 801 31 86 36 209
115 262 169 21 22 41 40 43 40 2 0 4 -53 4 -117 l0 -118 401 -3 402 -2 -1 829
c0 740 -3 882 -22 980 -3 14 -8 42 -11 61 -9 51 -63 187 -97 245 -129 214
-325 345 -622 415 -100 23 -145 29 -265 36 -52 2 -112 6 -132 8 -21 2 -39 2
-40 1z m60 -1539 c105 -14 236 -74 294 -133 l33 -34 0 -116 0 -115 -47 -43
c-172 -154 -536 -176 -700 -42 -73 60 -93 103 -93 202 0 58 5 89 19 115 71
133 262 197 494 166z"/>
<path d="M25373 15892 c-27 -4 -27 -3 -7 -67 8 -27 62 -207 119 -400 57 -192
129 -435 160 -540 31 -104 78 -264 105 -355 116 -396 314 -1062 331 -1118 l11
-32 431 2 431 3 34 110 c32 105 108 356 138 458 32 106 44 147 79 262 37 120
62 207 70 235 5 20 78 259 117 385 28 90 32 97 39 70 4 -16 17 -61 29 -100 12
-38 29 -97 39 -130 10 -33 41 -134 69 -225 53 -170 59 -193 113 -370 18 -58
42 -136 54 -175 12 -38 52 -172 90 -297 l69 -228 433 0 c238 0 433 1 433 3 0
2 21 73 46 158 25 85 61 208 80 274 20 66 74 248 121 405 46 157 106 359 133
450 26 91 84 289 129 440 108 366 112 376 176 589 30 101 53 186 50 189 -5 5
-814 6 -820 1 -2 -2 -33 -119 -69 -259 -36 -140 -91 -352 -122 -470 -31 -118
-57 -219 -59 -225 -1 -5 -7 -30 -14 -55 -7 -25 -14 -52 -16 -60 -5 -27 -118
-455 -120 -458 -2 -2 -26 70 -55 160 -28 90 -60 188 -70 218 -10 30 -51 156
-90 280 -39 124 -98 306 -129 405 -32 99 -78 241 -101 315 -24 74 -46 139 -51
144 -4 4 -146 8 -316 8 -418 -1 -403 0 -403 -14 0 -9 -104 -342 -145 -463 -8
-22 -50 -152 -94 -290 -173 -541 -245 -764 -248 -761 -2 2 -23 77 -103 386
-21 80 -47 179 -58 220 -11 41 -37 138 -58 215 -101 383 -136 518 -160 610
l-25 100 -387 0 c-213 0 -397 -1 -409 -3z"/>
</g>
</svg>
